<mxfile host="app.diagrams.net" modified="2024-07-03T11:29:58.164Z" agent="Mozilla/5.0 (Macintosh; Intel Mac OS X 10_15_7) AppleWebKit/537.36 (KHTML, like Gecko) Chrome/126.0.0.0 Safari/537.36" version="24.2.5" etag="i6gAhyy5ipbdHYkoI2vF" type="github">
  <diagram name="第 1 页" id="DrkI4kzzCFAA716JqiaZ">
    <mxGraphModel>
      <root>
        <mxCell id="0" />
        <mxCell id="1" parent="0" />
      </root>
    </mxGraphModel>
  </diagram>
</mxfile>
